# xmcd
#
# Track frame offsets: 
#        300
#        15693
#        29172
#        37622
#        58256
#        74816
#        90867
#        103421
#        117779
#        133678
#        149333
#        163217
#
# Disc length: 2377 seconds
#
# Revision: 0
# Processed by: cddbd v1.5.2PL0 Copyright (c) Steve Scherf et al.
# Submitted via: ExactAudioCopy v0.99pb5
#
DISCID=b009450c
DTITLE=Anni Piper - Two's Company
DYEAR=2009
DGENRE=General Blues
TTITLE0=Blues Before Sunrise
TTITLE1=Live to Play
TTITLE2=Man's Woman
TTITLE3=Untrue
TTITLE4=Jailbait
TTITLE5=Watchdog
TTITLE6=Two's Company
TTITLE7=Come in My Kitchen
TTITLE8=Mystery of Love
TTITLE9=Love's Truly Blind
TTITLE10=Texas Hold 'Em
TTITLE11=Little Redhead
EXTD=
EXTT0=
EXTT1=
EXTT2=
EXTT3=
EXTT4=
EXTT5=
EXTT6=
EXTT7=
EXTT8=
EXTT9=
EXTT10=
EXTT11=
PLAYORDER=
